<svg width="113" height="16" viewBox="0 0 113 16" fill="none" xmlns="http://www.w3.org/2000/svg">
<path d="M44.1769 5.62384L37.942 5.00919L35.1552 1.18857C34.6559 0.507558 33.2092 0.498901 32.7056 1.18857L29.9189 5.00919L23.684 5.62384C22.5659 5.73349 22.1178 6.66556 22.9286 7.19941L27.4395 10.1716L26.3726 14.3703C26.1805 15.1292 27.3626 15.6977 28.3527 15.3427L33.9304 13.3603L39.5082 15.3427C40.4982 15.6948 41.6804 15.1292 41.4883 14.3703L40.4214 10.1716L44.9322 7.19941C45.7431 6.66556 45.295 5.73349 44.1769 5.62384ZM38.2236 9.68685L39.235 13.6806L33.9304 11.7963L28.6258 13.6806L29.6373 9.68685L25.3441 6.8589L31.276 6.276L33.9304 2.64006L36.5849 6.276L42.5168 6.8589L38.2236 9.68685Z" fill="#FFB758"/>
<path d="M111.384 5.62384L105.149 5.00919L102.362 1.18857C101.863 0.507558 100.416 0.498901 99.9127 1.18857L97.1259 5.00919L90.891 5.62384C89.7729 5.73349 89.3248 6.66556 90.1357 7.19941L94.6465 10.1716L93.5796 14.3703C93.3875 15.1292 94.5697 15.6977 95.5597 15.3427L101.137 13.3603L106.715 15.3427C107.705 15.6948 108.887 15.1292 108.695 14.3703L107.628 10.1716L112.139 7.19941C112.95 6.66556 112.502 5.73349 111.384 5.62384ZM105.431 9.68685L106.442 13.6806L101.137 11.7963L95.8329 13.6806L96.8443 9.68685L92.5511 6.8589L98.483 6.276L101.137 2.64006L103.792 6.276L109.724 6.8589L105.431 9.68685Z" fill="#FFB758"/>
<path d="M21.7745 5.62384L15.5396 5.00919L12.7529 1.18857C12.2536 0.507558 10.8069 0.498901 10.3033 1.18857L7.51657 5.00919L1.28164 5.62384C0.163536 5.73349 -0.28456 6.66556 0.52628 7.19941L5.03711 10.1716L3.97021 14.3703C3.77817 15.1292 4.96029 15.6977 5.95037 15.3427L11.5281 13.3603L17.1058 15.3427C18.0959 15.6948 19.278 15.1292 19.086 14.3703L18.0191 10.1716L22.5299 7.19941C23.3407 6.66556 22.8926 5.73349 21.7745 5.62384ZM15.8213 9.68685L16.8327 13.6806L11.5281 11.7963L6.22349 13.6806L7.23491 9.68685L2.94173 6.8589L8.87366 6.276L11.5281 2.64006L14.1825 6.276L20.1145 6.8589L15.8213 9.68685Z" fill="#FFB758"/>
<path d="M66.5791 5.62384L60.3442 5.00919L57.5575 1.18857C57.0581 0.507558 55.6114 0.498901 55.1079 1.18857L52.3211 5.00919L46.0862 5.62384C44.9681 5.73349 44.52 6.66556 45.3308 7.19941L49.8417 10.1716L48.7748 14.3703C48.5827 15.1292 49.7649 15.6977 50.7549 15.3427L56.3327 13.3603L61.9104 15.3427C62.9005 15.6948 64.0826 15.1292 63.8905 14.3703L62.8236 10.1716L67.3345 7.19941C68.1453 6.66556 67.6972 5.73349 66.5791 5.62384ZM60.6258 9.68685L61.6373 13.6806L56.3327 11.7963L51.0281 13.6806L52.0395 9.68685L47.7463 6.8589L53.6782 6.276L56.3327 2.64006L58.9871 6.276L64.919 6.8589L60.6258 9.68685Z" fill="#FFB758"/>
<path d="M87.8069 5.79296L81.572 5.17832L78.7852 1.3577C78.2859 0.676686 76.8392 0.668029 76.3356 1.3577L73.5489 5.17832L67.314 5.79296C66.1959 5.90262 65.7478 6.83469 66.5586 7.36854L71.0695 10.3408L70.0026 14.5394C69.8105 15.2983 70.9926 15.8668 71.9827 15.5119L77.5604 13.5294L83.1382 15.5119C84.1282 15.8639 85.3104 15.2983 85.1183 14.5394L84.0514 10.3408L88.5623 7.36854C89.3731 6.83469 88.925 5.90262 87.8069 5.79296ZM81.8536 9.85598L82.865 13.8497L77.5604 11.9654L72.2558 13.8497L73.2673 9.85598L68.9741 7.02803L74.906 6.44512L77.5604 2.80919L80.2149 6.44512L86.1468 7.02803L81.8536 9.85598Z" fill="#FFB758"/>
</svg>
