<svg width="108" height="14" viewBox="0 0 108 14" fill="none" xmlns="http://www.w3.org/2000/svg">
<path d="M42.4211 4.65614L36.4577 4.0867L33.7923 0.547126C33.3147 -0.0837952 31.931 -0.0918154 31.4494 0.547126L28.784 4.0867L22.8206 4.65614C21.7511 4.75773 21.3226 5.62123 22.0981 6.11581L26.4125 8.86941L25.3921 12.7592C25.2084 13.4623 26.339 13.989 27.286 13.6601L32.6208 11.8235L37.9557 13.6601C38.9026 13.9863 40.0333 13.4623 39.8496 12.7592L38.8292 8.86941L43.1436 6.11581C43.9191 5.62123 43.4905 4.75773 42.4211 4.65614ZM36.7271 8.42028L37.6944 12.1203L32.6208 10.3745L27.5472 12.1203L28.5146 8.42028L24.4084 5.80035L30.082 5.26032L32.6208 1.89184L35.1597 5.26032L40.8333 5.80035L36.7271 8.42028Z" fill="#FFB758"/>
<path d="M106.701 4.65614L100.738 4.0867L98.0727 0.547126C97.5951 -0.0837952 96.2114 -0.0918154 95.7298 0.547126L93.0644 4.0867L87.101 4.65614C86.0315 4.75773 85.603 5.62123 86.3785 6.11581L90.6929 8.86941L89.6725 12.7592C89.4888 13.4623 90.6194 13.989 91.5664 13.6601L96.9012 11.8235L102.236 13.6601C103.183 13.9863 104.314 13.4623 104.13 12.7592L103.11 8.86941L107.424 6.11581C108.199 5.62123 107.771 4.75773 106.701 4.65614ZM101.007 8.42028L101.975 12.1203L96.9012 10.3745L91.8276 12.1203L92.795 8.42028L88.6888 5.80035L94.3624 5.26032L96.9012 1.89184L99.4401 5.26032L105.114 5.80035L101.007 8.42028Z" fill="#FFB758"/>
<path d="M20.9942 4.65614L15.0308 4.0867L12.3654 0.547126C11.8878 -0.0837952 10.5041 -0.0918154 10.0225 0.547126L7.35711 4.0867L1.39369 4.65614C0.324269 4.75773 -0.104314 5.62123 0.671217 6.11581L4.98562 8.86941L3.96518 12.7592C3.7815 13.4623 4.91215 13.989 5.85911 13.6601L11.1939 11.8235L16.5288 13.6601C17.4758 13.9863 18.6064 13.4623 18.4227 12.7592L17.4023 8.86941L21.7167 6.11581C22.4922 5.62123 22.0636 4.75773 20.9942 4.65614ZM15.3002 8.42028L16.2676 12.1203L11.1939 10.3745L6.12034 12.1203L7.08772 8.42028L2.98148 5.80035L8.65511 5.26032L11.1939 1.89184L13.7328 5.26032L19.4064 5.80035L15.3002 8.42028Z" fill="#FFB758"/>
<path d="M63.848 4.65614L57.8845 4.0867L55.2192 0.547126C54.7416 -0.0837952 53.3579 -0.0918154 52.8762 0.547126L50.2109 4.0867L44.2474 4.65614C43.178 4.75773 42.7494 5.62123 43.525 6.11581L47.8394 8.86941L46.8189 12.7592C46.6353 13.4623 47.7659 13.989 48.7129 13.6601L54.0477 11.8235L59.3825 13.6601C60.3295 13.9863 61.4602 13.4623 61.2765 12.7592L60.256 8.86941L64.5704 6.11581C65.346 5.62123 64.9174 4.75773 63.848 4.65614ZM58.1539 8.42028L59.1213 12.1203L54.0477 10.3745L48.9741 12.1203L49.9415 8.42028L45.8352 5.80035L51.5089 5.26032L54.0477 1.89184L56.5866 5.26032L62.2602 5.80035L58.1539 8.42028Z" fill="#FFB758"/>
<path d="M85.2746 4.65614L79.3112 4.0867L76.6458 0.547126C76.1682 -0.0837952 74.7845 -0.0918154 74.3029 0.547126L71.6375 4.0867L65.6741 4.65614C64.6047 4.75773 64.1761 5.62123 64.9516 6.11581L69.266 8.86941L68.2456 12.7592C68.0619 13.4623 69.1925 13.989 70.1395 13.6601L75.4743 11.8235L80.8092 13.6601C81.7561 13.9863 82.8868 13.4623 82.7031 12.7592L81.6827 8.86941L85.9971 6.11581C86.7726 5.62123 86.344 4.75773 85.2746 4.65614ZM79.5806 8.42028L80.548 12.1203L75.4743 10.3745L70.4007 12.1203L71.3681 8.42028L67.2619 5.80035L72.9355 5.26032L75.4743 1.89184L78.0132 5.26032L83.6868 5.80035L79.5806 8.42028Z" fill="#FFB758"/>
</svg>
