<svg width="108" height="15" viewBox="0 0 108 15" fill="none" xmlns="http://www.w3.org/2000/svg">
<path d="M42.783 5.49925L36.8462 4.92017L34.1928 1.32063C33.7173 0.679026 32.3398 0.67087 31.8603 1.32063L29.2069 4.92017L23.2701 5.49925C22.2055 5.60256 21.7789 6.48069 22.5509 6.98365L26.846 9.78389L25.8301 13.7396C25.6473 14.4546 26.7729 14.9902 27.7156 14.6558L33.0266 12.788L38.3375 14.6558C39.2802 14.9874 40.4058 14.4546 40.223 13.7396L39.2071 9.78389L43.5022 6.98365C44.2742 6.48069 43.8476 5.60256 42.783 5.49925ZM37.1144 9.32715L38.0774 13.0898L33.0266 11.3145L27.9757 13.0898L28.9387 9.32715L24.8508 6.66284L30.4991 6.11367L33.0266 2.68813L35.554 6.11367L41.2023 6.66284L37.1144 9.32715Z" fill="#FFB758"/>
<path d="M106.776 5.49925L100.839 4.92017L98.1857 1.32063C97.7103 0.679026 96.3327 0.67087 95.8533 1.32063L93.1998 4.92017L87.2631 5.49925C86.1984 5.60256 85.7718 6.48069 86.5438 6.98365L90.8389 9.78389L89.8231 13.7396C89.6402 14.4546 90.7658 14.9902 91.7085 14.6558L97.0195 12.788L102.33 14.6558C103.273 14.9874 104.399 14.4546 104.216 13.7396L103.2 9.78389L107.495 6.98365C108.267 6.48069 107.841 5.60256 106.776 5.49925ZM101.107 9.32715L102.07 13.0898L97.0195 11.3145L91.9686 13.0898L92.9316 9.32715L88.8438 6.66284L94.492 6.11367L97.0195 2.68813L99.547 6.11367L105.195 6.66284L101.107 9.32715Z" fill="#FFB758"/>
<path d="M21.452 5.49925L15.5153 4.92017L12.8618 1.32063C12.3864 0.679026 11.0089 0.67087 10.5294 1.32063L7.87595 4.92017L1.93922 5.49925C0.874587 5.60256 0.447922 6.48069 1.21998 6.98365L5.51507 9.78389L4.49921 13.7396C4.31635 14.4546 5.44193 14.9902 6.38466 14.6558L11.6956 12.788L17.0066 14.6558C17.9493 14.9874 19.0749 14.4546 18.892 13.7396L17.8762 9.78389L22.1713 6.98365C22.9433 6.48069 22.5166 5.60256 21.452 5.49925ZM15.7835 9.32715L16.7465 13.0898L11.6956 11.3145L6.64472 13.0898L7.60776 9.32715L3.51991 6.66284L9.16814 6.11367L11.6956 2.68813L14.2231 6.11367L19.8713 6.66284L15.7835 9.32715Z" fill="#FFB758"/>
<path d="M64.1139 5.49925L58.1771 4.92017L55.5237 1.32063C55.0483 0.679026 53.6708 0.67087 53.1913 1.32063L50.5378 4.92017L44.6011 5.49925C43.5365 5.60256 43.1098 6.48069 43.8818 6.98365L48.1769 9.78389L47.1611 13.7396C46.9782 14.4546 48.1038 14.9902 49.0465 14.6558L54.3575 12.788L59.6684 14.6558C60.6112 14.9874 61.7368 14.4546 61.5539 13.7396L60.538 9.78389L64.8331 6.98365C65.6052 6.48069 65.1785 5.60256 64.1139 5.49925ZM58.4453 9.32715L59.4084 13.0898L54.3575 11.3145L49.3066 13.0898L50.2696 9.32715L46.1818 6.66284L51.83 6.11367L54.3575 2.68813L56.885 6.11367L62.5332 6.66284L58.4453 9.32715Z" fill="#FFB758"/>
<path d="M85.4449 5.49925L79.5082 4.92017L76.8548 1.32063C76.3793 0.679026 75.0018 0.67087 74.5223 1.32063L71.8689 4.92017L65.9321 5.49925C64.8675 5.60256 64.4408 6.48069 65.2129 6.98365L69.508 9.78389L68.4921 13.7396C68.3093 14.4546 69.4349 14.9902 70.3776 14.6558L75.6885 12.788L80.9995 14.6558C81.9422 14.9874 83.0678 14.4546 82.885 13.7396L81.8691 9.78389L86.1642 6.98365C86.9362 6.48069 86.5096 5.60256 85.4449 5.49925ZM79.7764 9.32715L80.7394 13.0898L75.6885 11.3145L70.6376 13.0898L71.6007 9.32715L67.5128 6.66284L73.1611 6.11367L75.6885 2.68813L78.216 6.11367L83.8642 6.66284L79.7764 9.32715Z" fill="#FFB758"/>
</svg>
