<svg width="113" height="16" viewBox="0 0 113 16" fill="none" xmlns="http://www.w3.org/2000/svg">
<path d="M44.3398 5.29657L38.1049 4.68192L35.3182 0.861304C34.8189 0.180287 33.3722 0.171631 32.8686 0.861304L30.0819 4.68192L23.8469 5.29657C22.7288 5.40622 22.2807 6.33829 23.0916 6.87214L27.6024 9.84437L26.5355 14.043C26.3435 14.8019 27.5256 15.3704 28.5157 15.0155L34.0934 13.033L39.6711 15.0155C40.6612 15.3675 41.8433 14.8019 41.6513 14.043L40.5844 9.84437L45.0952 6.87214C45.906 6.33829 45.458 5.40622 44.3398 5.29657ZM38.3866 9.35958L39.398 13.3533L34.0934 11.469L28.7888 13.3533L29.8002 9.35958L25.507 6.53163L31.439 5.94873L34.0934 2.31279L36.7478 5.94873L42.6798 6.53163L38.3866 9.35958Z" fill="#FFB758" fill-opacity="0.88"/>
<path d="M111.547 5.29657L105.312 4.68192L102.525 0.861304C102.026 0.180287 100.579 0.171631 100.076 0.861304L97.2889 4.68192L91.054 5.29657C89.9359 5.40622 89.4878 6.33829 90.2986 6.87214L94.8094 9.84437L93.7426 14.043C93.5505 14.8019 94.7326 15.3704 95.7227 15.0155L101.3 13.033L106.878 15.0155C107.868 15.3675 109.05 14.8019 108.858 14.043L107.791 9.84437L112.302 6.87214C113.113 6.33829 112.665 5.40622 111.547 5.29657ZM105.594 9.35958L106.605 13.3533L101.3 11.469L95.9958 13.3533L97.0072 9.35958L92.7141 6.53163L98.646 5.94873L101.3 2.31279L103.955 5.94873L109.887 6.53163L105.594 9.35958Z" fill="#FFB758" fill-opacity="0.88"/>
<path d="M21.9375 5.29657L15.7026 4.68192L12.9158 0.861304C12.4165 0.180287 10.9698 0.171631 10.4663 0.861304L7.67953 4.68192L1.4446 5.29657C0.3265 5.40622 -0.121596 6.33829 0.689244 6.87214L5.20007 9.84437L4.13318 14.043C3.94114 14.8019 5.12326 15.3704 6.11333 15.0155L11.6911 13.033L17.2688 15.0155C18.2589 15.3675 19.441 14.8019 19.2489 14.043L18.182 9.84437L22.6929 6.87214C23.5037 6.33829 23.0556 5.40622 21.9375 5.29657ZM15.9842 9.35958L16.9957 13.3533L11.6911 11.469L6.38646 13.3533L7.39787 9.35958L3.10469 6.53163L9.03662 5.94873L11.6911 2.31279L14.3455 5.94873L20.2774 6.53163L15.9842 9.35958Z" fill="#FFB758" fill-opacity="0.88"/>
<path d="M66.7421 5.29657L60.5071 4.68192L57.7204 0.861304C57.2211 0.180287 55.7744 0.171631 55.2708 0.861304L52.4841 4.68192L46.2492 5.29657C45.1311 5.40622 44.683 6.33829 45.4938 6.87214L50.0046 9.84437L48.9377 14.043C48.7457 14.8019 49.9278 15.3704 50.9179 15.0155L56.4956 13.033L62.0733 15.0155C63.0634 15.3675 64.2455 14.8019 64.0535 14.043L62.9866 9.84437L67.4974 6.87214C68.3083 6.33829 67.8602 5.40622 66.7421 5.29657ZM60.7888 9.35958L61.8002 13.3533L56.4956 11.469L51.191 13.3533L52.2024 9.35958L47.9093 6.53163L53.8412 5.94873L56.4956 2.31279L59.1501 5.94873L65.082 6.53163L60.7888 9.35958Z" fill="#FFB758" fill-opacity="0.88"/>
<path d="M89.1445 5.29657L82.9096 4.68192L80.1229 0.861304C79.6236 0.180287 78.1769 0.171631 77.6733 0.861304L74.8866 4.68192L68.6516 5.29657C67.5335 5.40622 67.0854 6.33829 67.8963 6.87214L72.4071 9.84437L71.3402 14.043C71.1482 14.8019 72.3303 15.3704 73.3204 15.0155L78.8981 13.033L84.4758 15.0155C85.4659 15.3675 86.648 14.8019 86.456 14.043L85.3891 9.84437L89.8999 6.87214C90.7107 6.33829 90.2626 5.40622 89.1445 5.29657ZM83.1913 9.35958L84.2027 13.3533L78.8981 11.469L73.5935 13.3533L74.6049 9.35958L70.3117 6.53163L76.2437 5.94873L78.8981 2.31279L81.5525 5.94873L87.4844 6.53163L83.1913 9.35958Z" fill="#FFB758" fill-opacity="0.88"/>
</svg>
