<svg width="113" height="14" viewBox="0 0 113 14" fill="none" xmlns="http://www.w3.org/2000/svg">
<path d="M44.441 4.97569L38.2061 4.41739L35.4194 0.946998C34.9201 0.328409 33.4734 0.320545 32.9698 0.946998L30.1831 4.41739L23.9481 4.97569C22.83 5.0753 22.3819 5.92193 23.1928 6.40684L27.7036 9.10661L26.6367 12.9204C26.4447 13.6097 27.6268 14.1261 28.6169 13.8037L34.1946 12.003L39.7723 13.8037C40.7624 14.1235 41.9445 13.6097 41.7525 12.9204L40.6856 9.10661L45.1964 6.40684C46.0072 5.92193 45.5591 5.0753 44.441 4.97569ZM38.4878 8.66626L39.4992 12.2939L34.1946 10.5823L28.89 12.2939L29.9014 8.66626L25.6082 6.09754L31.5402 5.56807L34.1946 2.26543L36.849 5.56807L42.781 6.09754L38.4878 8.66626Z" fill="#FFB758"/>
<path d="M111.648 4.97569L105.413 4.41739L102.626 0.946998C102.127 0.328409 100.68 0.320545 100.177 0.946998L97.3901 4.41739L91.1552 4.97569C90.0371 5.0753 89.589 5.92193 90.3998 6.40684L94.9106 9.10661L93.8437 12.9204C93.6517 13.6097 94.8338 14.1261 95.8239 13.8037L101.402 12.003L106.979 13.8037C107.969 14.1235 109.152 13.6097 108.96 12.9204L107.893 9.10661L112.403 6.40684C113.214 5.92193 112.766 5.0753 111.648 4.97569ZM105.695 8.66626L106.706 12.2939L101.402 10.5823L96.097 12.2939L97.1084 8.66626L92.8153 6.09754L98.7472 5.56807L101.402 2.26543L104.056 5.56807L109.988 6.09754L105.695 8.66626Z" fill="#FFB758"/>
<path d="M22.0387 4.97569L15.8038 4.41739L13.017 0.946998C12.5177 0.328409 11.071 0.320545 10.5675 0.946998L7.78073 4.41739L1.5458 4.97569C0.427696 5.0753 -0.0203995 5.92193 0.79044 6.40684L5.30127 9.10661L4.23437 12.9204C4.04233 13.6097 5.22445 14.1261 6.21453 13.8037L11.7923 12.003L17.37 13.8037C18.3601 14.1235 19.5422 13.6097 19.3501 12.9204L18.2832 9.10661L22.7941 6.40684C23.6049 5.92193 23.1568 5.0753 22.0387 4.97569ZM16.0854 8.66626L17.0968 12.2939L11.7923 10.5823L6.48765 12.2939L7.49907 8.66626L3.20589 6.09754L9.13782 5.56807L11.7923 2.26543L14.4467 5.56807L20.3786 6.09754L16.0854 8.66626Z" fill="#FFB758"/>
<path d="M66.8433 4.97569L60.6083 4.41739L57.8216 0.946998C57.3223 0.328409 55.8756 0.320545 55.372 0.946998L52.5853 4.41739L46.3504 4.97569C45.2323 5.0753 44.7842 5.92193 45.595 6.40684L50.1058 9.10661L49.0389 12.9204C48.8469 13.6097 50.029 14.1261 51.0191 13.8037L56.5968 12.003L62.1745 13.8037C63.1646 14.1235 64.3467 13.6097 64.1547 12.9204L63.0878 9.10661L67.5986 6.40684C68.4095 5.92193 67.9614 5.0753 66.8433 4.97569ZM60.89 8.66626L61.9014 12.2939L56.5968 10.5823L51.2922 12.2939L52.3036 8.66626L48.0105 6.09754L53.9424 5.56807L56.5968 2.26543L59.2512 5.56807L65.1832 6.09754L60.89 8.66626Z" fill="#FFB758"/>
<path d="M89.2457 4.97569L83.0108 4.41739L80.2241 0.946998C79.7248 0.328409 78.2781 0.320545 77.7745 0.946998L74.9878 4.41739L68.7528 4.97569C67.6347 5.0753 67.1866 5.92193 67.9975 6.40684L72.5083 9.10661L71.4414 12.9204C71.2494 13.6097 72.4315 14.1261 73.4216 13.8037L78.9993 12.003L84.577 13.8037C85.5671 14.1235 86.7492 13.6097 86.5572 12.9204L85.4903 9.10661L90.0011 6.40684C90.8119 5.92193 90.3638 5.0753 89.2457 4.97569ZM83.2925 8.66626L84.3039 12.2939L78.9993 10.5823L73.6947 12.2939L74.7061 8.66626L70.4129 6.09754L76.3448 5.56807L78.9993 2.26543L81.6537 5.56807L87.5856 6.09754L83.2925 8.66626Z" fill="#FFB758"/>
</svg>
