<svg width="113" height="16" viewBox="0 0 113 16" fill="none" xmlns="http://www.w3.org/2000/svg">
<path d="M44.441 5.76202L38.2061 5.14737L35.4194 1.32676C34.9201 0.645742 33.4734 0.637085 32.9698 1.32676L30.1831 5.14737L23.9481 5.76202C22.83 5.87167 22.3819 6.80374 23.1928 7.33759L27.7036 10.3098L26.6367 14.5085C26.4447 15.2674 27.6268 15.8359 28.6169 15.4809L34.1946 13.4985L39.7723 15.4809C40.7624 15.833 41.9445 15.2674 41.7525 14.5085L40.6856 10.3098L45.1964 7.33759C46.0072 6.80374 45.5591 5.87167 44.441 5.76202ZM38.4878 9.82503L39.4992 13.8188L34.1946 11.9344L28.89 13.8188L29.9014 9.82503L25.6082 6.99708L31.5402 6.41418L34.1946 2.77825L36.849 6.41418L42.781 6.99708L38.4878 9.82503Z" fill="#FFB758"/>
<path d="M111.648 5.76202L105.413 5.14737L102.626 1.32676C102.127 0.645742 100.68 0.637085 100.177 1.32676L97.3901 5.14737L91.1552 5.76202C90.0371 5.87167 89.589 6.80374 90.3998 7.33759L94.9106 10.3098L93.8437 14.5085C93.6517 15.2674 94.8338 15.8359 95.8239 15.4809L101.402 13.4985L106.979 15.4809C107.969 15.833 109.152 15.2674 108.96 14.5085L107.893 10.3098L112.403 7.33759C113.214 6.80374 112.766 5.87167 111.648 5.76202ZM105.695 9.82503L106.706 13.8188L101.402 11.9344L96.097 13.8188L97.1084 9.82503L92.8153 6.99708L98.7472 6.41418L101.402 2.77825L104.056 6.41418L109.988 6.99708L105.695 9.82503Z" fill="#FFB758"/>
<path d="M22.0387 5.76202L15.8038 5.14737L13.017 1.32676C12.5177 0.645742 11.071 0.637085 10.5675 1.32676L7.78073 5.14737L1.5458 5.76202C0.427696 5.87167 -0.0203995 6.80374 0.79044 7.33759L5.30127 10.3098L4.23437 14.5085C4.04233 15.2674 5.22445 15.8359 6.21453 15.4809L11.7923 13.4985L17.37 15.4809C18.3601 15.833 19.5422 15.2674 19.3501 14.5085L18.2832 10.3098L22.7941 7.33759C23.6049 6.80374 23.1568 5.87167 22.0387 5.76202ZM16.0854 9.82503L17.0968 13.8188L11.7923 11.9344L6.48765 13.8188L7.49907 9.82503L3.20589 6.99708L9.13782 6.41418L11.7923 2.77825L14.4467 6.41418L20.3786 6.99708L16.0854 9.82503Z" fill="#FFB758"/>
<path d="M66.8433 5.76202L60.6083 5.14737L57.8216 1.32676C57.3223 0.645742 55.8756 0.637085 55.372 1.32676L52.5853 5.14737L46.3504 5.76202C45.2323 5.87167 44.7842 6.80374 45.595 7.33759L50.1058 10.3098L49.0389 14.5085C48.8469 15.2674 50.029 15.8359 51.0191 15.4809L56.5968 13.4985L62.1745 15.4809C63.1646 15.833 64.3467 15.2674 64.1547 14.5085L63.0878 10.3098L67.5986 7.33759C68.4095 6.80374 67.9614 5.87167 66.8433 5.76202ZM60.89 9.82503L61.9014 13.8188L56.5968 11.9344L51.2922 13.8188L52.3036 9.82503L48.0105 6.99708L53.9424 6.41418L56.5968 2.77825L59.2512 6.41418L65.1832 6.99708L60.89 9.82503Z" fill="#FFB758"/>
<path d="M89.2457 5.76202L83.0108 5.14737L80.2241 1.32676C79.7248 0.645742 78.2781 0.637085 77.7745 1.32676L74.9878 5.14737L68.7528 5.76202C67.6347 5.87167 67.1866 6.80374 67.9975 7.33759L72.5083 10.3098L71.4414 14.5085C71.2494 15.2674 72.4315 15.8359 73.4216 15.4809L78.9993 13.4985L84.577 15.4809C85.5671 15.833 86.7492 15.2674 86.5572 14.5085L85.4903 10.3098L90.0011 7.33759C90.8119 6.80374 90.3638 5.87167 89.2457 5.76202ZM83.2925 9.82503L84.3039 13.8188L78.9993 11.9344L73.6947 13.8188L74.7061 9.82503L70.4129 6.99708L76.3448 6.41418L78.9993 2.77825L81.6537 6.41418L87.5856 6.99708L83.2925 9.82503Z" fill="#FFB758"/>
</svg>
