<svg width="37" height="42" viewBox="0 0 37 42" fill="none" xmlns="http://www.w3.org/2000/svg">
<path d="M18.4777 21C24.1397 21 28.7285 16.2996 28.7285 10.5C28.7285 4.70039 24.1397 0 18.4777 0C12.8157 0 8.22679 4.70039 8.22679 10.5C8.22679 16.2996 12.8157 21 18.4777 21ZM25.6533 23.625H24.3158C22.538 24.4617 20.5599 24.9375 18.4777 24.9375C16.3955 24.9375 14.4254 24.4617 12.6395 23.625H11.302C5.35975 23.625 0.538635 28.5633 0.538635 34.65V38.0625C0.538635 40.2363 2.26046 42 4.38271 42H32.5726C34.6949 42 36.4167 40.2363 36.4167 38.0625V34.65C36.4167 28.5633 31.5956 23.625 25.6533 23.625Z" fill="black"/>
</svg>
