<svg width="15" height="11" viewBox="0 0 15 11" fill="none" xmlns="http://www.w3.org/2000/svg">
<path d="M13.1998 4.30045H8.73954V1.12707C8.73954 0.73767 8.29568 0.421875 7.74836 0.421875H6.75719C6.20988 0.421875 5.76602 0.73767 5.76602 1.12707V4.30045H1.30575C0.758434 4.30045 0.314575 4.61624 0.314575 5.00564V5.71084C0.314575 6.10024 0.758434 6.41603 1.30575 6.41603H5.76602V9.58941C5.76602 9.97881 6.20988 10.2946 6.75719 10.2946H7.74836C8.29568 10.2946 8.73954 9.97881 8.73954 9.58941V6.41603H13.1998C13.7471 6.41603 14.191 6.10024 14.191 5.71084V5.00564C14.191 4.61624 13.7471 4.30045 13.1998 4.30045Z" fill="black"/>
</svg>
