<svg width="55" height="49" viewBox="0 0 55 49" fill="none" xmlns="http://www.w3.org/2000/svg">
<path d="M15.2778 42.875C12.8333 42.875 10.3889 40.7313 9.16667 39.8125C3.05556 35.525 1.22222 33.9938 0 33.075V45.9375C0 47.6286 1.36832 49 3.05556 49H27.5C29.1872 49 30.5556 47.6286 30.5556 45.9375V33.075C29.3333 33.9938 27.5 35.525 21.3889 39.8125C20.1667 40.7313 17.7222 42.875 15.2778 42.875ZM27.5 24.5H3.05556C1.36832 24.5 0 25.8714 0 27.5625V29.0938C2.44444 30.9313 2.13889 30.9312 11 37.3625C11.9167 37.975 13.75 39.8125 15.2778 39.8125C16.8056 39.8125 18.6389 37.975 19.5556 37.6688C28.4167 31.2375 28.1111 31.2375 30.5556 29.4V27.5625C30.5556 25.8714 29.1872 24.5 27.5 24.5ZM51.9444 15.3125H21.3889C19.7016 15.3125 18.3333 16.6839 18.3333 18.375V21.4375H27.5C30.6711 21.4375 33.2855 23.8703 33.5834 26.9711L33.6111 26.95V39.8125H51.9444C53.6317 39.8125 55 38.4411 55 36.75V18.375C55 16.6839 53.6317 15.3125 51.9444 15.3125ZM48.8889 27.5625H42.7778V21.4375H48.8889V27.5625ZM15.2778 18.375C15.2778 14.9976 18.0192 12.25 21.3889 12.25H42.7778V3.0625C42.7778 1.37143 41.4095 0 39.7222 0H9.16667C7.47943 0 6.11111 1.37143 6.11111 3.0625V21.4375H15.2778V18.375Z" fill="#FF2121"/>
</svg>
