<svg width="15" height="11" viewBox="0 0 15 11" fill="none" xmlns="http://www.w3.org/2000/svg">
<path d="M13.2617 4.10404H8.80142V0.930659C8.80142 0.541259 8.35757 0.225464 7.81025 0.225464H6.81908C6.27177 0.225464 5.82791 0.541259 5.82791 0.930659V4.10404H1.36764C0.820324 4.10404 0.376465 4.41983 0.376465 4.80923V5.51443C0.376465 5.90382 0.820324 6.21962 1.36764 6.21962H5.82791V9.393C5.82791 9.7824 6.27177 10.0982 6.81908 10.0982H7.81025C8.35757 10.0982 8.80142 9.7824 8.80142 9.393V6.21962H13.2617C13.809 6.21962 14.2529 5.90382 14.2529 5.51443V4.80923C14.2529 4.41983 13.809 4.10404 13.2617 4.10404Z" fill="black"/>
</svg>
