<svg width="15" height="10" viewBox="0 0 15 10" fill="none" xmlns="http://www.w3.org/2000/svg">
<path d="M13.0368 3.87857H8.57657V0.705195C8.57657 0.315795 8.13271 0 7.5854 0H6.59423C6.04692 0 5.60306 0.315795 5.60306 0.705195V3.87857H1.14278C0.59547 3.87857 0.151611 4.19437 0.151611 4.58377V5.28896C0.151611 5.67836 0.59547 5.99416 1.14278 5.99416H5.60306V9.16753C5.60306 9.55693 6.04692 9.87273 6.59423 9.87273H7.5854C8.13271 9.87273 8.57657 9.55693 8.57657 9.16753V5.99416H13.0368C13.5842 5.99416 14.028 5.67836 14.028 5.28896V4.58377C14.028 4.19437 13.5842 3.87857 13.0368 3.87857Z" fill="black"/>
</svg>
