<svg width="41" height="50" viewBox="0 0 41 50" fill="none" xmlns="http://www.w3.org/2000/svg">
<path d="M40.3413 43.2282L32.384 33.4928C32.0248 33.0534 31.538 32.8093 31.0272 32.8093H29.7262C31.929 29.3624 33.238 25.0269 33.238 20.3105C33.238 9.09091 25.8074 0 16.6369 0C7.46645 0 0.0358887 9.09091 0.0358887 20.3105C0.0358887 31.5301 7.46645 40.621 16.6369 40.621C20.4919 40.621 24.0356 39.0196 26.853 36.3246V37.9162C26.853 38.5412 27.0525 39.1368 27.4116 39.5762L35.369 49.3116C36.1192 50.2295 37.3324 50.2295 38.0746 49.3116L40.3333 46.5482C41.0836 45.6303 41.0836 44.1461 40.3413 43.2282ZM16.6369 32.8093C10.9942 32.8093 6.4209 27.2239 6.4209 20.3105C6.4209 13.4069 10.9862 7.81174 16.6369 7.81174C22.2797 7.81174 26.853 13.3971 26.853 20.3105C26.853 27.2141 22.2877 32.8093 16.6369 32.8093Z" fill="black"/>
</svg>
