<svg width="15" height="11" viewBox="0 0 15 11" fill="none" xmlns="http://www.w3.org/2000/svg">
<path d="M13.6493 4.43131H9.189V1.25793C9.189 0.868529 8.74514 0.552734 8.19783 0.552734H7.20665C6.65934 0.552734 6.21548 0.868529 6.21548 1.25793V4.43131H1.75521C1.2079 4.43131 0.764038 4.7471 0.764038 5.1365V5.8417C0.764038 6.2311 1.2079 6.54689 1.75521 6.54689H6.21548V9.72027C6.21548 10.1097 6.65934 10.4255 7.20665 10.4255H8.19783C8.74514 10.4255 9.189 10.1097 9.189 9.72027V6.54689H13.6493C14.1966 6.54689 14.6404 6.2311 14.6404 5.8417V5.1365C14.6404 4.7471 14.1966 4.43131 13.6493 4.43131Z" fill="black"/>
</svg>
