<svg width="15" height="11" viewBox="0 0 15 11" fill="none" xmlns="http://www.w3.org/2000/svg">
<path d="M13.2617 4.66947H8.80142V1.49609C8.80142 1.10669 8.35757 0.790894 7.81025 0.790894H6.81908C6.27177 0.790894 5.82791 1.10669 5.82791 1.49609V4.66947H1.36764C0.820324 4.66947 0.376465 4.98526 0.376465 5.37466V6.07985C0.376465 6.46925 0.820324 6.78505 1.36764 6.78505H5.82791V9.95843C5.82791 10.3478 6.27177 10.6636 6.81908 10.6636H7.81025C8.35757 10.6636 8.80142 10.3478 8.80142 9.95843V6.78505H13.2617C13.809 6.78505 14.2529 6.46925 14.2529 6.07985V5.37466C14.2529 4.98526 13.809 4.66947 13.2617 4.66947Z" fill="black"/>
</svg>
