<svg width="52" height="43" viewBox="0 0 52 43" fill="none" xmlns="http://www.w3.org/2000/svg">
<path d="M50.4278 14.199C50.8188 13.8518 51.4002 14.1766 51.4002 14.7253V37.625C51.4002 40.5924 49.2448 43 46.5881 43H4.88244C2.22571 43 0.0702515 40.5924 0.0702515 37.625V14.7365C0.0702515 14.1766 0.641699 13.863 1.04271 14.2102C3.2884 16.1586 6.26594 18.6333 16.4918 26.931C18.6072 28.6555 22.1762 32.2836 25.7353 32.2612C29.3143 32.2948 32.9535 28.5883 34.9887 26.931C45.2146 18.6333 48.1821 16.1474 50.4278 14.199ZM25.7353 28.6667C28.0611 28.7115 31.4096 25.3969 33.0939 24.0307C46.3976 13.2471 47.4101 12.3065 50.4779 9.61901C51.0594 9.1151 51.4002 8.33125 51.4002 7.5026V5.375C51.4002 2.40755 49.2448 0 46.5881 0H4.88244C2.22571 0 0.0702515 2.40755 0.0702515 5.375V7.5026C0.0702515 8.33125 0.411115 9.10391 0.992587 9.61901C4.06036 12.2953 5.07292 13.2471 18.3766 24.0307C20.0609 25.3969 23.4094 28.7115 25.7353 28.6667Z" fill="#767171"/>
</svg>
