<svg width="45" height="55" viewBox="0 0 45 55" fill="none" xmlns="http://www.w3.org/2000/svg">
<path d="M43.2375 40.4765L33.344 34.3025C32.9212 34.0398 32.4245 33.9216 31.9287 33.9656C31.4329 34.0097 30.9648 34.2136 30.5949 34.5466L25.0194 39.555C18.192 34.9479 13.1804 28.1086 10.8445 20.2104L17.3 16.4029C17.7297 16.1513 18.0657 15.7665 18.2572 15.3067C18.4487 14.847 18.4851 14.3375 18.3611 13.8552L15.4548 2.56125C15.3173 2.04077 15.0025 1.58457 14.5647 1.27132C14.1269 0.95808 13.5935 0.807422 13.0565 0.84533L2.86936 1.59825C2.35135 1.63661 1.86163 1.84943 1.48013 2.20195C1.09864 2.55448 0.847902 3.02591 0.768841 3.53929C-2.97298 27.8007 13.6645 50.4603 37.8881 54.1963C38.4016 54.2758 38.9269 54.1789 39.3781 53.9213C39.8294 53.6638 40.1801 53.2608 40.3728 52.7783L44.16 43.2914C44.3576 42.7881 44.3735 42.2317 44.2052 41.718C44.0368 41.2042 43.6946 40.7652 43.2375 40.4765Z" fill="#FF2121"/>
</svg>
