<svg width="51" height="44" viewBox="0 0 51 44" fill="none" xmlns="http://www.w3.org/2000/svg">
<path d="M44.6259 27.5H19.2655L19.8317 30.25H43.0529C44.3853 30.25 45.3728 31.479 45.0775 32.7696L44.6003 34.8558C46.2172 35.6355 47.3322 37.2821 47.3322 39.1875C47.3322 41.8689 45.1245 44.0381 42.4163 43.9995C39.8362 43.9626 37.7144 41.8827 37.6447 39.3204C37.6067 37.9208 38.1712 36.6522 39.0984 35.7499H20.9614C21.8592 36.6235 22.4169 37.8405 22.4169 39.1875C22.4169 41.9214 20.1219 44.123 17.3413 43.9947C14.8722 43.8808 12.8642 41.8991 12.7344 39.4471C12.6343 37.5536 13.6373 35.8846 15.1612 35.0139L9.084 5.5H3.03831C1.8916 5.5 0.962036 4.5766 0.962036 3.4375V2.0625C0.962036 0.923398 1.8916 0 3.03831 0H11.9083C12.8946 0 13.7447 0.689305 13.9424 1.64914L14.7354 5.5H48.7155C50.0479 5.5 51.0354 6.72899 50.7402 8.0196L46.6505 25.8946C46.4357 26.8336 45.5953 27.5 44.6259 27.5ZM36.2587 14.4375H32.1062V11C32.1062 10.2406 31.4865 9.625 30.722 9.625H29.3378C28.5733 9.625 27.9536 10.2406 27.9536 11V14.4375H23.8011C23.0366 14.4375 22.4169 15.0531 22.4169 15.8125V17.1875C22.4169 17.9469 23.0366 18.5625 23.8011 18.5625H27.9536V22C27.9536 22.7594 28.5733 23.375 29.3378 23.375H30.722C31.4865 23.375 32.1062 22.7594 32.1062 22V18.5625H36.2587C37.0232 18.5625 37.6429 17.9469 37.6429 17.1875V15.8125C37.6429 15.0531 37.0232 14.4375 36.2587 14.4375Z" fill="black"/>
</svg>
