<svg width="15" height="11" viewBox="0 0 15 11" fill="none" xmlns="http://www.w3.org/2000/svg">
<path d="M13.0368 4.73489H8.57657V1.56152C8.57657 1.17212 8.13271 0.856323 7.5854 0.856323H6.59423C6.04692 0.856323 5.60306 1.17212 5.60306 1.56152V4.73489H1.14278C0.59547 4.73489 0.151611 5.05069 0.151611 5.44009V6.14528C0.151611 6.53468 0.59547 6.85048 1.14278 6.85048H5.60306V10.0239C5.60306 10.4133 6.04692 10.7291 6.59423 10.7291H7.5854C8.13271 10.7291 8.57657 10.4133 8.57657 10.0239V6.85048H13.0368C13.5842 6.85048 14.028 6.53468 14.028 6.14528V5.44009C14.028 5.05069 13.5842 4.73489 13.0368 4.73489Z" fill="black"/>
</svg>
